<?xml version="1.0" encoding="UTF-8" standalone="no"?>
<svg width="64px" height="64px" viewBox="0 0 64 64" version="1.1" xmlns="http://www.w3.org/2000/svg" xmlns:xlink="http://www.w3.org/1999/xlink" xmlns:sketch="http://www.bohemiancoding.com/sketch/ns">
    <!-- Generator: Sketch 3.0.2 (7799) - http://www.bohemiancoding.com/sketch -->
    <title>brochure</title>
    <description>Created with Sketch.</description>
    <defs>
        <path id="path-1" d="M33.2917689,0.0255997091 C50.3652639,0.703505243 64,14.7597037 64,32 C64,49.67296 49.67232,64 32,64 C14.8567125,64 0.862767011,50.5198523 0.0383999088,33.5815455 L0.0384,30.4184526 C0.841960815,13.9076535 14.1587154,0.682653587 30.7081416,0.0255997091 L33.2917763,0.0256"></path>
    </defs>
    <g id="Page-1" stroke="none" stroke-width="1" fill="none" fill-rule="evenodd" sketch:type="MSPage">
        <g id="brochure" sketch:type="MSArtboardGroup">
            <path d="M32,0 C49.67232,0 64,14.32704 64,32 C64,49.67296 49.67232,64 32,64 C14.3264,64 0,49.67296 0,32 C0,14.32704 14.3264,0 32,0" id="Fill-1" fill="#F15D22" sketch:type="MSShapeGroup"></path>
            <g id="Group-10" sketch:type="MSLayerGroup">
                <mask id="mask-2" sketch:name="Clip 3" fill="white">
                    <use xlink:href="#path-1"></use>
                </mask>
                <g id="Clip-3"></g>
                <path d="M72.32,12.8 L45.44,6.4 L45.44,51.2 L72.32,57.6 L72.32,12.8" id="Fill-2" fill="#EEEEEE" sketch:type="MSShapeGroup" mask="url(#mask-2)"></path>
                <path d="M66.56,44.8 L50.56,40.96 C50.20608,40.96 49.92,41.24672 49.92,41.6 C49.92,41.95392 50.20608,42.24 50.56,42.24 L66.56,46.08 C66.91328,46.08 67.2,45.79392 67.2,45.44 C67.2,45.08672 66.91328,44.8 66.56,44.8 L66.56,44.8 Z M66.56,23.04 C66.56,23.04 52.31744,19.2 51.2,19.2 C50.47744,19.2 49.92,19.77344 49.92,20.48 L49.92,26.88 C49.92,27.5872 50.96768,28.16 51.2,28.16 L66.56,32 C67.26656,32 67.84,31.42656 67.84,30.72 L67.84,24.32 C67.84,23.61344 67.26656,23.04 66.56,23.04 L66.56,23.04 Z M66.56,33.92 C66.56,33.92 52.31744,30.08 51.2,30.08 C50.47744,30.08 49.92,30.65344 49.92,31.36 L49.92,37.76 C49.92,38.4672 50.96768,39.04 51.2,39.04 L66.56,42.88 C67.26656,42.88 67.84,42.30656 67.84,41.6 L67.84,35.2 C67.84,34.49344 67.26656,33.92 66.56,33.92 L66.56,33.92 Z" id="Fill-4" fill="#CCCCCC" sketch:type="MSShapeGroup" mask="url(#mask-2)"></path>
                <path d="M18.56,12.8 L-8.32,6.4 L-8.32,51.2 L18.56,57.6 L18.56,12.8" id="Fill-5" fill="#333333" sketch:type="MSShapeGroup" mask="url(#mask-2)"></path>
                <path d="M12.8,29.44 C12.79808,29.44 -2.56,25.6 -2.56,25.6 C-3.26656,25.6 -3.84,26.17344 -3.84,26.88 L-3.84,37.12 C-3.84,37.82656 -3.26656,38.4 -2.56,38.4 C-2.56,38.4 11.42528,42.24 12.8,42.24 C13.536,42.24 14.08,41.66656 14.08,40.96 L14.08,30.72 C14.08,30.04864 12.98432,29.44 12.8,29.44 L12.8,29.44 Z M-2.56,21.76 L12.8,25.6 C13.78304,25.6 14.08,25.02656 14.08,24.32 C14.08,23.792 13.40224,23.04 12.8,23.04 L-2.56,19.2 C-3.26656,19.2 -3.84,19.77344 -3.84,20.48 C-3.84,21.18656 -3.2672,21.76 -2.56,21.76 L-2.56,21.76 Z" id="Fill-6" fill="#E6E6E6" sketch:type="MSShapeGroup" mask="url(#mask-2)"></path>
                <path d="M18.56,12.8 L45.44,6.4 L45.44,51.2 L18.56,57.6 L18.56,12.8" id="Fill-7" fill="#DDDDDD" sketch:type="MSShapeGroup" mask="url(#mask-2)"></path>
                <path d="M33.92,53.76 L45.44,6.4 L45.44,51.2 L33.92,53.76" id="Fill-8" fill="#CCCCCC" sketch:type="MSShapeGroup" mask="url(#mask-2)"></path>
                <path d="M40.32,34.56 L24.32,38.4 C23.96608,38.4 23.68,38.68672 23.68,39.04 C23.68,39.39392 23.96608,39.68 24.32,39.68 L40.32,35.84 C40.67328,35.84 40.96,35.55392 40.96,35.2 C40.96,34.84608 40.67328,34.56 40.32,34.56 L40.32,34.56 Z M40.32,37.76 L24.32,41.6 C23.96608,41.6 23.68,41.88672 23.68,42.24 C23.68,42.59392 23.96608,42.88 24.32,42.88 L40.32,39.04 C40.67328,39.04 40.96,38.75392 40.96,38.4 C40.96,38.04608 40.67328,37.76 40.32,37.76 L40.32,37.76 Z M40.32,40.96 L24.32,44.8 C23.96608,44.8 23.68,45.08672 23.68,45.44 C23.68,45.79392 23.96608,46.08 24.32,46.08 L40.32,42.24 C40.67328,42.24 40.96,41.95392 40.96,41.6 C40.96,41.24672 40.67328,40.96 40.32,40.96 L40.32,40.96 Z M40.32,19.2 C39.44384,19.2 24.96,23.04 24.96,23.04 C24.36608,23.23392 23.68,23.72096 23.68,24.32 L23.68,34.56 C23.68,35.26656 24.2528,35.84 24.96,35.84 L40.32,32 C40.58944,32 41.6,31.28 41.6,30.72 L41.6,20.48 C41.6,19.77344 41.03232,19.2 40.32,19.2 L40.32,19.2 Z" id="Fill-9" fill="#999999" sketch:type="MSShapeGroup" mask="url(#mask-2)"></path>
            </g>
        </g>
    </g>
</svg>