<?xml version="1.0" encoding="UTF-8" standalone="no"?>
<svg width="64px" height="64px" viewBox="0 0 64 64" version="1.1" xmlns="http://www.w3.org/2000/svg" xmlns:xlink="http://www.w3.org/1999/xlink" xmlns:sketch="http://www.bohemiancoding.com/sketch/ns">
    <!-- Generator: Sketch 3.0.2 (7799) - http://www.bohemiancoding.com/sketch -->
    <title>browser</title>
    <description>Created with Sketch.</description>
    <defs></defs>
    <g id="Page-1" stroke="none" stroke-width="1" fill="none" fill-rule="evenodd" sketch:type="MSPage">
        <g id="browser" sketch:type="MSArtboardGroup">
            <path d="M31.9808,0 C49.65376,0 63.9808,14.32704 63.9808,32 C63.9808,49.67296 49.65376,64 31.9808,64 C14.30784,64 -0.0192,49.67232 -0.0192,32 C-0.0192,14.3264 14.3072,0 31.9808,0 L31.9808,0 Z" id="Shape" fill="#F15D22" sketch:type="MSShapeGroup"></path>
            <path d="M15.9808,12.8 C14.21376,12.8 12.7808,14.23296 12.7808,16 L12.7808,57.6 C18.12864,61.61728 24.77632,64 31.9808,64 C49.65376,64 63.9808,49.67232 63.9808,32 C63.9808,24.79552 61.59872,18.14848 57.58144,12.8 L15.9808,12.8 L15.9808,12.8 Z" id="Shape" fill="#F7F7F7" sketch:type="MSShapeGroup"></path>
            <path d="M16.6208,31.36 L16.6208,44.16 C16.6208,44.86656 17.19424,45.44 17.9008,45.44 L61.02144,45.44 C62.91584,41.35232 63.9808,36.80128 63.9808,32 C63.9808,31.35488 63.95584,30.71552 63.91808,30.08 L17.9008,30.08 C17.1936,30.08 16.6208,30.6528 16.6208,31.36 L16.6208,31.36 Z" id="Shape" fill="#333333" sketch:type="MSShapeGroup"></path>
            <path d="M57.19552,30.72064 C57.008,32.40576 56.06912,33.34208 54.3808,33.5296 C56.06976,33.71712 57.008,34.65472 57.19552,36.33984 C57.38304,34.65472 58.32192,33.71712 60.01024,33.5296 C58.32192,33.34272 57.38304,32.4064 57.19552,30.72064 L57.19552,30.72064 Z M36.6208,37.23008 C36.47488,38.54016 35.74592,39.26912 34.432,39.41504 C35.74592,39.5616 36.47488,40.28992 36.6208,41.6 C36.76736,40.28992 37.49696,39.56096 38.81088,39.41504 C37.49696,39.26848 36.76672,38.54016 36.6208,37.23008 L36.6208,37.23008 Z" id="Shape" fill="#F1BC22" sketch:type="MSShapeGroup"></path>
            <path d="M24.65664,32.016 C24.55296,32.95232 24.03136,33.47264 23.09312,33.5776 C24.032,33.68128 24.55296,34.2016 24.65664,35.13792 C24.7616,34.2016 25.2832,33.68192 26.22016,33.5776 C25.2832,33.47264 24.7616,32.95232 24.65664,32.016 L24.65664,32.016 Z M53.96608,40.35136 C53.88288,41.10016 53.4656,41.51744 52.71552,41.6 C53.4656,41.68384 53.88288,42.09984 53.96608,42.84864 C54.04928,42.09984 54.46656,41.68384 55.21664,41.6 C54.46656,41.51744 54.04928,41.10016 53.96608,40.35136 L53.96608,40.35136 Z M46.0832,35.01248 C45.97824,35.9488 45.45664,36.46976 44.51968,36.57344 C45.45728,36.67712 45.97824,37.19872 46.0832,38.1344 C46.18688,37.19808 46.70848,36.67712 47.64672,36.57344 C46.70784,36.46976 46.18688,35.9488 46.0832,35.01248 L46.0832,35.01248 Z" id="Shape" fill="#666666" sketch:type="MSShapeGroup"></path>
            <path d="M26.2208,37.76 C29.40224,37.76 31.9808,40.33856 31.9808,43.52 C31.9808,46.70144 29.40224,49.28 26.2208,49.28 C23.03936,49.28 20.4608,46.70144 20.4608,43.52 C20.4608,40.33856 23.03936,37.76 26.2208,37.76 L26.2208,37.76 Z" id="Shape" fill="#E6E6E6" sketch:type="MSShapeGroup"></path>
            <path d="M18.8608,16.64 C17.62368,16.64 16.6208,17.64288 16.6208,18.88 C16.6208,20.11776 17.62368,21.12 18.8608,21.12 C20.09856,21.12 21.1008,20.11776 21.1008,18.88 C21.1008,17.64288 20.09792,16.64 18.8608,16.64 L18.8608,16.64 Z M18.8608,19.84 C18.33088,19.84 17.9008,19.40992 17.9008,18.88 C17.9008,18.35008 18.33088,17.92 18.8608,17.92 C19.39072,17.92 19.8208,18.35008 19.8208,18.88 C19.8208,19.40992 19.39072,19.84 18.8608,19.84 L18.8608,19.84 Z" id="Shape" fill="#F15D22" sketch:type="MSShapeGroup"></path>
            <path d="M25.2608,16.64 C24.02304,16.64 23.0208,17.64288 23.0208,18.88 C23.0208,20.11776 24.02304,21.12 25.2608,21.12 C26.49856,21.12 27.5008,20.11776 27.5008,18.88 C27.5008,17.64288 26.49792,16.64 25.2608,16.64 L25.2608,16.64 Z M25.2608,19.84 C24.73088,19.84 24.3008,19.40992 24.3008,18.88 C24.3008,18.35008 24.73088,17.92 25.2608,17.92 C25.79072,17.92 26.2208,18.35008 26.2208,18.88 C26.2208,19.40992 25.79072,19.84 25.2608,19.84 L25.2608,19.84 Z" id="Shape" fill="#F1BC22" sketch:type="MSShapeGroup"></path>
            <path d="M31.6608,16.64 C30.42304,16.64 29.4208,17.64288 29.4208,18.88 C29.4208,20.11776 30.42304,21.12 31.6608,21.12 C32.89856,21.12 33.9008,20.11776 33.9008,18.88 C33.9008,17.64288 32.89792,16.64 31.6608,16.64 L31.6608,16.64 Z M31.6608,19.84 C31.13088,19.84 30.7008,19.40992 30.7008,18.88 C30.7008,18.35008 31.13088,17.92 31.6608,17.92 C32.19072,17.92 32.6208,18.35008 32.6208,18.88 C32.6208,19.40992 32.19072,19.84 31.6608,19.84 L31.6608,19.84 Z" id="Shape" fill="#999999" sketch:type="MSShapeGroup"></path>
            <g id="Group" sketch:type="MSLayerGroup" transform="translate(16.640000, 16.640000)" fill="#E6E6E6">
                <path d="M-0.0192,35.84 C-0.0192,36.19392 0.26752,36.48 0.6208,36.48 L17.2608,36.48 C17.61472,36.48 17.9008,36.19392 17.9008,35.84 C17.9008,35.48608 17.61472,35.2 17.2608,35.2 L0.6208,35.2 C0.26688,35.2 -0.0192,35.48608 -0.0192,35.84 L-0.0192,35.84 Z M20.4608,38.4 C20.4608,38.75392 20.74688,39.04 21.1008,39.04 L36.86464,39.04 C37.3184,38.6272 37.75616,38.19776 38.18496,37.76 L21.1008,37.76 C20.74688,37.76 20.4608,38.04608 20.4608,38.4 L20.4608,38.4 Z M17.9008,40.96 C17.9008,40.60608 17.61472,40.32 17.2608,40.32 L0.6208,40.32 C0.26752,40.32 -0.0192,40.60608 -0.0192,40.96 C-0.0192,41.31392 0.26752,41.6 0.6208,41.6 L17.2608,41.6 C17.61408,41.6 17.9008,41.31392 17.9008,40.96 L17.9008,40.96 Z M20.4608,35.84 C20.4608,36.19392 20.74688,36.48 21.1008,36.48 L39.37088,36.48 C39.7376,36.06272 40.09344,35.63648 40.4384,35.2 L21.1008,35.2 C20.74688,35.2 20.4608,35.48608 20.4608,35.84 L20.4608,35.84 Z M43.41696,-1.42108547e-14 L21.7408,-1.42108547e-14 C21.03424,-1.42108547e-14 20.4608,0.57344 20.4608,1.28 L20.4608,3.2 C20.4608,3.90656 21.03424,4.48 21.7408,4.48 L45.44064,4.48 C44.87872,2.92736 44.20096,1.4304 43.41696,-1.42108547e-14 L43.41696,-1.42108547e-14 Z M17.2608,37.76 L0.6208,37.76 C0.26752,37.76 -0.0192,38.04608 -0.0192,38.4 C-0.0192,38.75392 0.26752,39.04 0.6208,39.04 L17.2608,39.04 C17.61472,39.04 17.9008,38.75392 17.9008,38.4 C17.9008,38.04608 17.61408,37.76 17.2608,37.76 L17.2608,37.76 Z M21.1008,40.32 C20.74688,40.32 20.4608,40.60608 20.4608,40.96 C20.4608,41.31392 20.74688,41.6 21.1008,41.6 L33.64736,41.6 C34.23104,41.19104 34.80128,40.7648 35.35616,40.32 L21.1008,40.32 L21.1008,40.32 Z" id="Shape" sketch:type="MSShapeGroup"></path>
            </g>
            <path d="M63.19424,24.96 L12.7808,24.96 L12.7808,26.24 L63.45408,26.24 C63.37536,25.80992 63.2896,25.38368 63.19424,24.96 L63.19424,24.96 Z" id="Shape" fill="#E6E6E6" sketch:type="MSShapeGroup"></path>
            <path d="M26.2208,40.32 C25.16096,40.32 24.3008,41.60896 24.3008,43.2 C24.3008,44.14656 24.60928,44.97856 25.07904,45.504 C23.60192,45.66912 22.3296,46.14784 21.49632,46.81024 C22.53696,48.30144 24.26304,49.28 26.2208,49.28 C28.17856,49.28 29.90464,48.30144 30.94528,46.81024 C30.112,46.14784 28.83968,45.66912 27.36256,45.504 C27.83168,44.97856 28.1408,44.14656 28.1408,43.2 C28.1408,41.60896 27.28064,40.32 26.2208,40.32 Z" id="Shape" fill="#999999" sketch:type="MSShapeGroup"></path>
        </g>
    </g>
</svg>