<?xml version="1.0" encoding="UTF-8" standalone="no"?>
<svg width="64px" height="64px" viewBox="0 0 64 64" version="1.1" xmlns="http://www.w3.org/2000/svg" xmlns:xlink="http://www.w3.org/1999/xlink" xmlns:sketch="http://www.bohemiancoding.com/sketch/ns">
    <!-- Generator: Sketch 3.0.2 (7799) - http://www.bohemiancoding.com/sketch -->
    <title>identity</title>
    <description>Created with Sketch.</description>
    <defs></defs>
    <g id="Page-1" stroke="none" stroke-width="1" fill="none" fill-rule="evenodd" sketch:type="MSPage">
        <g id="identity" sketch:type="MSArtboardGroup">
            <path d="M32,0 C49.67296,0 64,14.32768 64,32 C64,49.67296 49.67296,64 32,64 C14.32704,64 0,49.67296 0,32 C0,14.32768 14.32704,0 32,0 L32,0 Z" id="Shape" fill="#666666" sketch:type="MSShapeGroup"></path>
            <path d="M5.81888,13.61088 L32,53.12 L32.64,53.12 L58.26624,13.7312 C52.48512,5.43424 42.87936,0 32,0 C21.17312,0 11.6096,5.3824 5.81888,13.61088 L5.81888,13.61088 Z" id="Shape" fill="#333333" sketch:type="MSShapeGroup"></path>
            <path d="M32,53.12 L32.64,53.12 L48.44096,4.54592 C43.63584,1.66144 38.0128,3.55271368e-15 32,3.55271368e-15 C26.0064,3.55271368e-15 20.4,1.65184 15.60448,4.51968 L32,53.12 L32,53.12 Z" id="Shape" fill="#E6E6E6" sketch:type="MSShapeGroup"></path>
            <path d="M35.2,0 L28.8,0 L28.8,42.58304 L32,51.84 L32.64,51.84 L35.2,44.16 L35.2,0 Z" id="Shape" fill="#FFFFFF" sketch:type="MSShapeGroup"></path>
            <path d="M32,17.28 C32.70656,17.28 33.28,16.70656 33.28,16 C33.28,15.29344 32.70656,14.72 32,14.72 C31.29344,14.72 30.72,15.29344 30.72,16 C30.72,16.70656 31.29344,17.28 32,17.28 L32,17.28 Z M32,27.52 C31.29344,27.52 30.72,28.09344 30.72,28.8 C30.72,29.50656 31.29344,30.08 32,30.08 C32.70656,30.08 33.28,29.50656 33.28,28.8 C33.28,28.09344 32.70656,27.52 32,27.52 L32,27.52 Z M32,40.32 C31.29344,40.32 30.72,40.89344 30.72,41.6 C30.72,42.30656 31.29344,42.88 32,42.88 C32.70656,42.88 33.28,42.30656 33.28,41.6 C33.28,40.89344 32.70656,40.32 32,40.32 L32,40.32 Z" id="Shape" fill="#666666" sketch:type="MSShapeGroup"></path>
            <path d="M63.984,32.64 L53.76,32.64 L53.76,35.84 L63.76256,35.84 C63.88864,34.78784 63.96224,33.72032 63.984,32.64 L63.984,32.64 Z" id="Shape" fill="#333333" sketch:type="MSShapeGroup"></path>
            <path d="M53.76,32.6144 L53.76,32.64 L63.984,32.64 L64,32 C64,30.86592 63.93856,29.74656 63.824,28.64256 L56.2688,29.7216 C54.82944,29.92768 53.76,31.16032 53.76,32.6144 L53.76,32.6144 Z" id="Shape" fill="#F15D22" sketch:type="MSShapeGroup"></path>
            <path d="M27.52,11.52 L31.95904,5.12 L36.48,11.52 L35.21792,0.16128 C34.15936,0.05504 33.08608,8.8817842e-16 32,8.8817842e-16 C30.91392,8.8817842e-16 29.84064,0.05504 28.78208,0.16128 L27.52,11.52 L27.52,11.52 Z" id="Shape" fill="#CCCCCC" sketch:type="MSShapeGroup"></path>
            <g id="Group" sketch:type="MSLayerGroup" transform="translate(16.000000, 0.000000)" fill="#FFFFFF">
                <path d="M0.05632,4.2592 L11.52,11.52 L15.76192,0.00576 C10.04416,0.048 4.68672,1.59232 0.05632,4.2592 L0.05632,4.2592 Z M16.23808,0.00576 L20.48,11.52 L31.94368,4.2592 C27.31328,1.59232 21.95584,0.048 16.23808,0.00576 L16.23808,0.00576 Z" id="Shape" sketch:type="MSShapeGroup"></path>
            </g>
        </g>
    </g>
</svg>