<?xml version="1.0" encoding="UTF-8" standalone="no"?>
<svg width="64px" height="64px" viewBox="0 0 64 64" version="1.1" xmlns="http://www.w3.org/2000/svg" xmlns:xlink="http://www.w3.org/1999/xlink" xmlns:sketch="http://www.bohemiancoding.com/sketch/ns">
    <!-- Generator: Sketch 3.0.2 (7799) - http://www.bohemiancoding.com/sketch -->
    <title>search</title>
    <description>Created with Sketch.</description>
    <defs></defs>
    <g id="Page-1" stroke="none" stroke-width="1" fill="none" fill-rule="evenodd" sketch:type="MSPage">
        <g id="search" sketch:type="MSArtboardGroup">
            <path d="M32,0 C14.32704,0 0,14.3264 0,31.99936 C0,49.67296 14.32704,64 32,64 C49.67296,64 64,49.67296 64,31.99936 C64,14.3264 49.67296,0 32,0 L32,0 Z" id="Shape" fill="#F15D22" sketch:type="MSShapeGroup"></path>
            <path d="M50.46144,46.6528 C50.52416,46.36416 50.56,46.06592 50.56,45.75872 C50.56,43.46112 48.6976,41.59872 46.4,41.59872 C44.1024,41.59872 42.24,43.46112 42.24,45.75872 C42.24,48.05632 44.1024,49.91872 46.4,49.91872 C46.70656,49.91872 47.0048,49.88288 47.29344,49.82016 L53.32544,55.8528 C54.43968,54.85504 55.48224,53.78112 56.44736,52.63872 L50.46144,46.6528 L50.46144,46.6528 Z" id="Shape" fill="#333333" sketch:type="MSShapeGroup"></path>
            <path d="M32,15.99872 C40.83648,15.99872 48,23.16224 48,31.99872 C48,40.8352 40.83648,47.99872 32,47.99872 C23.16352,47.99872 16,40.8352 16,31.99872 C16,23.16224 23.16352,15.99872 32,15.99872 L32,15.99872 Z" id="Shape" fill="#E6E6E6" sketch:type="MSShapeGroup"></path>
            <path d="M48.57344,48.54016 C48.28544,48.60352 47.9872,48.63872 47.68,48.63872 C45.3824,48.63872 43.52,46.77632 43.52,44.47872 C43.52,43.65824 43.76128,42.89472 44.17152,42.25024 C43.0112,42.98816 42.24,44.2816 42.24,45.75872 C42.24,48.05632 44.1024,49.91872 46.4,49.91872 C46.70656,49.91872 47.0048,49.88288 47.29344,49.82016 L53.32544,55.8528 C53.776,55.4496 54.2176,55.03808 54.64448,54.6112 L48.57344,48.54016 L48.57344,48.54016 Z" id="Shape" fill="#222222" sketch:type="MSShapeGroup"></path>
            <path d="M31.02976,41.59808 C26.27136,41.59808 22.4,37.72736 22.4,32.97024 C22.4,32.43392 22.83456,31.99936 23.37024,31.99936 C23.90592,31.99936 24.34048,32.43392 24.34048,32.97024 C24.34048,36.65856 27.34144,39.65888 31.0304,39.65888 C31.56608,39.65888 32.00064,40.09344 32.00064,40.62848 C32,41.16352 31.56544,41.59808 31.02976,41.59808 L31.02976,41.59808 Z" id="Shape" fill="#FFFFFF" sketch:type="MSShapeGroup"></path>
            <path d="M32,12.15872 C21.04256,12.15872 12.16,21.04128 12.16,31.99872 C12.16,42.95616 21.04256,51.83872 32,51.83872 C42.95744,51.83872 51.84,42.95616 51.84,31.99872 C51.84,21.04128 42.95744,12.15872 32,12.15872 L32,12.15872 Z M32,47.99872 C23.16352,47.99872 16,40.8352 16,31.99872 C16,23.16224 23.16352,15.99872 32,15.99872 C40.83648,15.99872 48,23.16224 48,31.99872 C48,40.8352 40.83648,47.99872 32,47.99872 L32,47.99872 Z" id="Shape" fill="#444444" sketch:type="MSShapeGroup"></path>
            <path d="M32,15.99872 C27.09312,15.99872 22.70464,18.20992 19.7696,21.68832 C22.55488,19.33824 26.15104,17.91872 30.08,17.91872 C38.91648,17.91872 46.08,25.08224 46.08,33.91872 C46.08,37.84832 44.66112,41.44448 42.3104,44.22912 C45.7888,41.29408 48,36.9056 48,31.99872 C48,23.16224 40.83648,15.99872 32,15.99872 L32,15.99872 Z" id="Shape" fill="#CCCCCC" sketch:type="MSShapeGroup"></path>
        </g>
    </g>
</svg>